<?xml version="1.0" encoding="utf-8"?>
<svg version="1.1" xmlns="http://www.w3.org/2000/svg" x="0px" y="0px" viewBox="0 0 224 224">
<style type="text/css">
	.st0{
    fill-rule:evenodd;
    clip-rule:evenodd;
    fill:url(#SVGID_1_1024);
  }
</style>
<linearGradient id="SVGID_1_1024" gradientUnits="userSpaceOnUse" x1="71.9942" y1="212.7898" x2="152.0054" y2="15.2106" gradientTransform="matrix(1 0 0 -1 0 226)">
	<stop  offset="0" style="stop-color:#FFE27D"/>
	<stop  offset="0.5052" style="stop-color:#64E3FF"/>
	<stop  offset="1" style="stop-color:#9192FF"/>
</linearGradient>
<path class="st0" d="M209,168c-30.9,53.6-99.4,71.9-153,41C2.4,178.1-15.9,109.6,15,56c30.9-53.6,99.4-71.9,153-41
	C221.6,45.9,239.9,114.4,209,168z M35.7,184.2c-5.7-14.8-6.7-33.6-2.8-53.9c-5.7-5.4-10.8-10.7-15.1-16c-4.1-5-7.5-9.9-10.1-14.7
	C4.1,130.3,14.2,161.5,35.7,184.2z M9.9,87.4c2.2,6.6,6.7,14.3,13.3,22.4c3.3,4.1,7.1,8.2,11.4,12.4c1.5-6,3.4-12.1,5.7-18.2
	c0.4,0.5,0.8,1,1.2,1.4c1.3,1.3,3,2.2,4.7,2.7c-2.4,6.6-4.4,13.2-5.8,19.6c3.8,3.4,7.8,6.8,12.2,10.2c-0.1,0.7-0.2,1.3-0.2,2v6.6
	c-4.8-3.6-9.3-7.2-13.5-10.9c-1.1,7.1-1.6,14-1.4,20.5c0.5,21,7.5,36.8,19.5,45.1l9.8-16.9c0.4,1.9,1.4,3.6,2.8,5
	c0.5,0.5,1.1,1,1.6,1.3l-8.1,14c13,5.6,29.8,3.6,47.7-6.2c5.7-3.1,11.4-7,17-11.5c-8.5-2.9-17.4-6.6-26.4-10.9v-7.8
	c11.2,5.5,22.2,10,32.6,13.4c1.2-1.1,2.3-2.2,3.5-3.3h9.5c0.1,0,0.2,0,0.3,0c-1.8,1.9-3.7,3.8-5.5,5.6c5.8,1.6,11.3,2.8,16.4,3.7
	c10.4,1.7,19.2,1.8,26.1,0.4c7.1-6.8,13.4-14.7,18.6-23.6c7.4-12.8,11.7-26.4,13.4-40.2c-5.4,0.1-11.4-0.4-17.7-1.4
	c-12.4-2-26.4-6.1-41.1-12.1v-7.6c7.5,3.2,14.8,5.8,21.8,7.9c5.1-15.3,7.4-30.2,7.1-43.5c-0.5-20.4-7.2-36-18.5-44.4l-10.4,18
	c-0.2-2.5-1.2-5-3.1-6.8c-0.2-0.2-0.5-0.5-0.7-0.7l8.2-14.2c-13.1-6.2-30.4-4.3-48.8,5.7c-9,4.9-18.1,11.7-26.7,20.1H77
	c-0.1,0-0.2,0-0.3,0c18.6-19.9,40.1-32.6,59.7-35.7c-28.1-6.7-57.5-1.4-81.4,14c2.4,4.5,5.7,9.3,9.7,14.2c2.3,2.8,4.8,5.7,7.6,8.6
	c-1,0.5-1.9,1.2-2.7,2c-0.9,0.9-1.6,2-2.1,3.1c-3-3.1-5.7-6.2-8.2-9.2c-4-5-7.4-9.9-10.1-14.6c-11.1,8.3-20.7,18.9-28.1,31.7
	C15.9,68.5,12.2,77.9,9.9,87.4z M174.9,196.1c-24.8,18.5-56.8,25.3-87.2,18c15.7-2.4,32.5-11,48.1-24.5c7.5,2.3,14.7,4,21.4,5
	C163.5,195.7,169.4,196.2,174.9,196.1z M216.9,117.3c-5.1,0.1-10.9-0.3-17.2-1.3c-4.3-0.7-8.9-1.7-13.6-2.9
	c9.1-27.5,9.8-53.9,2.2-73.3C208.1,60.8,218.3,89,216.9,117.3z"/>
<path d="M56,98l0-11.6l0-0.7h12.4V98H57.3L56,98z"/>
<path d="M68.4,77.4v8.3h12.4v49.1H68.4v4.9l0,7.4h11.2l1.2,0v0.7l0,7.2l0,16.6h12.4v-36.8h12.4v-12.3l24.9,0v36.8h12.4v-12.3h9.8
	l2.7,0l0-12.3h5l7.1,0l0.4,0v-12.3h-12.4v12.3l-12.4,0V48.8h-12.4v12.3h-12.4v12.3h-12.4v3.7l0,7.4l0,1.1h1.7l10.7,0l0-12.3h12.3
	l0.1,0v12.1l0,0.2v6.6l0,7l0,11h-24.9v12.3l-12.4,0V61.1H80.9l0,4.3l0,7.9H68.4V77.4z"/>
</svg>
